<svg width="20" height="19" viewBox="0 0 20 19" fill="none" xmlns="http://www.w3.org/2000/svg">
<path d="M14.2633 6.16653L12.3685 0.5M4.78901 6.16653L6.68388 0.5M8.10503 15.6107H5.02018C4.34125 15.6107 3.68476 15.3684 3.1695 14.9277C2.65423 14.487 2.31424 13.877 2.21105 13.2081L1.02202 6.45363C0.98049 6.18446 0.997847 5.90951 1.0729 5.64765C1.14795 5.38579 1.27892 5.1432 1.45684 4.93652C1.63475 4.72984 1.8554 4.56395 2.10365 4.45023C2.3519 4.33651 2.62188 4.27765 2.89509 4.27768H16.1582C16.4314 4.27765 16.7014 4.33651 16.9497 4.45023C17.1979 4.56395 17.4185 4.72984 17.5965 4.93652C17.7744 5.1432 17.9053 5.38579 17.9804 5.64765C18.0554 5.90951 18.0728 6.18446 18.0313 6.45363L17.9053 7.16856" stroke="white" stroke-linecap="round" stroke-linejoin="round"/>
<path d="M11.0383 8.8053C10.7528 8.42772 10.3356 8.1706 9.86918 8.08475C9.40273 7.9989 8.92095 8.09055 8.519 8.3416C8.11706 8.59266 7.82419 8.98485 7.69826 9.4407C7.57232 9.89656 7.62248 10.3829 7.83882 10.8037M15.0213 16.3824L12.9635 17.4571C12.9024 17.4888 12.8337 17.503 12.7651 17.498C12.6964 17.493 12.6305 17.4691 12.5747 17.4289C12.5188 17.3888 12.4753 17.3339 12.4489 17.2705C12.4226 17.2071 12.4144 17.1377 12.4253 17.0699L12.8185 14.7929L11.1539 13.1808C11.1042 13.1329 11.069 13.0721 11.0524 13.0052C11.0357 12.9384 11.0382 12.8682 11.0597 12.8027C11.0811 12.7372 11.1206 12.6791 11.1736 12.6349C11.2266 12.5907 11.291 12.5622 11.3595 12.5528L13.6599 12.2203L14.6888 10.1492C14.7195 10.0875 14.767 10.0356 14.8257 9.99934C14.8845 9.96306 14.9522 9.94383 15.0213 9.94383C15.0904 9.94383 15.1582 9.96306 15.2169 9.99934C15.2757 10.0356 15.3231 10.0875 15.3539 10.1492L16.3828 12.2203L18.6831 12.5528C18.7514 12.5625 18.8155 12.5912 18.8683 12.6354C18.9211 12.6797 18.9604 12.7377 18.9818 12.8031C19.0032 12.8684 19.0058 12.9384 18.9894 13.0052C18.9729 13.0719 18.9381 13.1328 18.8887 13.1808L17.2241 14.7929L17.6163 17.069C17.6281 17.1369 17.6205 17.2067 17.5945 17.2705C17.5685 17.3343 17.525 17.3895 17.4691 17.43C17.4131 17.4704 17.3469 17.4944 17.278 17.4992C17.2091 17.504 17.1402 17.4894 17.0791 17.4571L15.0213 16.3824Z" stroke="white" stroke-linecap="round" stroke-linejoin="round"/>
</svg>
