<svg width="13" height="15" viewBox="0 0 13 15" fill="none" xmlns="http://www.w3.org/2000/svg">
<path d="M4.94754 1.51172L4.39621 2.34375H8.60379L8.05245 1.51172C8.00893 1.44727 7.93638 1.40625 7.85804 1.40625H5.13906C5.06071 1.40625 4.98817 1.44434 4.94464 1.51172H4.94754ZM9.21317 0.732422L10.2781 2.34375H12.3036C12.6895 2.34375 13 2.65723 13 3.04688C13 3.43652 12.6895 3.75 12.3036 3.75H12.0714V12.6562C12.0714 13.9512 11.0326 15 9.75 15H3.25C1.96741 15 0.928571 13.9512 0.928571 12.6562V3.75H0.696429C0.310491 3.75 0 3.43652 0 3.04688C0 2.65723 0.310491 2.34375 0.696429 2.34375H2.72187L3.78683 0.729492C4.08862 0.275391 4.59643 0 5.13906 0H7.85804C8.40067 0 8.90848 0.275391 9.21027 0.729492L9.21317 0.732422ZM2.32143 3.75V12.6562C2.32143 13.1748 2.73638 13.5938 3.25 13.5938H9.75C10.2636 13.5938 10.6786 13.1748 10.6786 12.6562V3.75H2.32143ZM4.64286 5.625V11.7188C4.64286 11.9766 4.43393 12.1875 4.17857 12.1875C3.92321 12.1875 3.71429 11.9766 3.71429 11.7188V5.625C3.71429 5.36719 3.92321 5.15625 4.17857 5.15625C4.43393 5.15625 4.64286 5.36719 4.64286 5.625ZM6.96429 5.625V11.7188C6.96429 11.9766 6.75536 12.1875 6.5 12.1875C6.24464 12.1875 6.03571 11.9766 6.03571 11.7188V5.625C6.03571 5.36719 6.24464 5.15625 6.5 5.15625C6.75536 5.15625 6.96429 5.36719 6.96429 5.625ZM9.28571 5.625V11.7188C9.28571 11.9766 9.07679 12.1875 8.82143 12.1875C8.56607 12.1875 8.35714 11.9766 8.35714 11.7188V5.625C8.35714 5.36719 8.56607 5.15625 8.82143 5.15625C9.07679 5.15625 9.28571 5.36719 9.28571 5.625Z" fill="white"/>
</svg>
