<svg width="15" height="16" viewBox="0 0 15 16" fill="none" xmlns="http://www.w3.org/2000/svg">
<path d="M4.36189 2.4212C4.91506 2.32695 5.48232 2.35804 6.02187 2.51218C6.56142 2.66632 7.0595 2.93958 7.47939 3.31182L7.50252 3.33245L7.52377 3.3137C7.92452 2.96201 8.39566 2.69982 8.90575 2.54462C9.41585 2.38943 9.95318 2.34479 10.4819 2.4137L10.6356 2.4362C11.3021 2.55126 11.925 2.84442 12.4384 3.28462C12.9519 3.72481 13.3367 4.29566 13.5522 4.93672C13.7677 5.57777 13.8058 6.26517 13.6625 6.92612C13.5192 7.58706 13.1998 8.19695 12.7381 8.6912L12.6256 8.80682L12.5956 8.83245L7.93939 13.4443C7.83194 13.5507 7.68958 13.6145 7.5387 13.6239C7.38781 13.6333 7.23862 13.5877 7.11877 13.4956L7.06002 13.4443L2.37689 8.80557C1.88078 8.32286 1.52796 7.71225 1.35749 7.04136C1.18703 6.37048 1.20558 5.66551 1.41109 5.00452C1.6166 4.34353 2.00106 3.75232 2.52187 3.29637C3.04268 2.84041 3.67953 2.53751 4.36189 2.4212Z" fill="#FF0000"/>
</svg>
