<svg width="15" height="16" viewBox="0 0 15 16" fill="none" xmlns="http://www.w3.org/2000/svg">
<path d="M4.36189 2.42126C4.91506 2.32701 5.48232 2.3581 6.02187 2.51224C6.56142 2.66638 7.0595 2.93964 7.47939 3.31188L7.50252 3.33251L7.52377 3.31376C7.92452 2.96207 8.39566 2.69988 8.90575 2.54468C9.41585 2.38949 9.95318 2.34485 10.4819 2.41376L10.6356 2.43626C11.3021 2.55133 11.925 2.84448 12.4384 3.28468C12.9519 3.72487 13.3367 4.29572 13.5522 4.93678C13.7677 5.57783 13.8058 6.26523 13.6625 6.92618C13.5192 7.58712 13.1998 8.19701 12.7381 8.69126L12.6256 8.80688L12.5956 8.83251L7.93939 13.4444C7.83194 13.5507 7.68958 13.6145 7.5387 13.624C7.38781 13.6334 7.23862 13.5878 7.11877 13.4956L7.06002 13.4444L2.37689 8.80563C1.88078 8.32292 1.52796 7.71231 1.35749 7.04142C1.18703 6.37054 1.20558 5.66557 1.41109 5.00458C1.6166 4.34359 2.00106 3.75238 2.52187 3.29643C3.04268 2.84047 3.67953 2.53757 4.36189 2.42126Z" fill="white"/>
</svg>
