<svg width="18" height="19" viewBox="0 0 18 19" fill="none" xmlns="http://www.w3.org/2000/svg">
<path d="M9.00119 4.56739L8.67016 4.27216L8.64354 4.24841C8.19565 3.85135 7.66437 3.55987 7.08885 3.39545C6.51334 3.23104 5.90827 3.19787 5.31824 3.2984L9.00119 4.56739ZM9.00119 4.56739L9.33378 4.27393M9.00119 4.56739L9.33378 4.27393M9.33378 4.27393L9.35827 4.25232C9.35843 4.25218 9.35859 4.25204 9.35875 4.2519C9.78612 3.87697 10.2885 3.59745 10.8324 3.43197C11.3753 3.2668 11.9471 3.21903 12.5098 3.29182L12.6838 3.31728C13.3923 3.44076 14.0545 3.75301 14.6006 4.2212C15.1483 4.69074 15.5588 5.29965 15.7886 5.98344C16.0185 6.66723 16.0591 7.40046 15.9062 8.10547C15.7537 8.80886 15.4143 9.45805 14.9237 9.9846L14.8084 10.1031L14.79 10.1188L14.776 10.1308M9.33378 4.27393L14.776 10.1308M14.776 10.1308L14.7629 10.1438M14.776 10.1308L14.7629 10.1438M14.7629 10.1438L9.1755 15.6779C9.17546 15.6779 9.17542 15.678 9.17538 15.678C9.13241 15.7205 9.07552 15.7459 9.01522 15.7497C8.95864 15.7532 8.90266 15.7374 8.85638 15.7051L8.81259 15.6669L3.20409 10.1115L3.2041 10.1115M14.7629 10.1438L3.2041 10.1115M3.2041 10.1115L3.2009 10.1084M3.2041 10.1115L3.2009 10.1084M3.2009 10.1084C2.67172 9.5935 2.29537 8.94219 2.11354 8.22658M3.2009 10.1084L2.11354 8.22658M2.11354 8.22658C1.93172 7.51097 1.95151 6.759 2.17072 6.05394M2.11354 8.22658L2.17072 6.05394M2.17072 6.05394C2.38993 5.34889 2.80001 4.71827 3.35555 4.23191M2.17072 6.05394L3.35555 4.23191M3.35555 4.23191C3.91107 3.74557 4.59037 3.42247 5.31821 3.29841L3.35555 4.23191Z" stroke="white"/>
</svg>
