<svg width="18" height="22" viewBox="0 0 18 22" fill="none" xmlns="http://www.w3.org/2000/svg">
<path d="M12.5 0H4.5C3.83696 0 3.20107 0.263392 2.73223 0.732233C2.26339 1.20107 2 1.83696 2 2.5V19.5C2 20.163 2.26339 20.7989 2.73223 21.2678C3.20107 21.7366 3.83696 22 4.5 22H12.5C13.163 22 13.7989 21.7366 14.2678 21.2678C14.7366 20.7989 15 20.163 15 19.5V2.5C15 1.83696 14.7366 1.20107 14.2678 0.732233C13.7989 0.263392 13.163 0 12.5 0ZM8.5 21C7.67 21 7 20.33 7 19.5C7 18.67 7.67 18 8.5 18C9.33 18 10 18.67 10 19.5C10 20.33 9.33 21 8.5 21ZM13 17H4V3H13V17Z" fill="white"/>
</svg>
