<svg width="18" height="22" viewBox="0 0 18 22" fill="none" xmlns="http://www.w3.org/2000/svg">
<path d="M13.5 0H5.5C4.83696 0 4.20107 0.263392 3.73223 0.732233C3.26339 1.20107 3 1.83696 3 2.5V19.5C3 20.163 3.26339 20.7989 3.73223 21.2678C4.20107 21.7366 4.83696 22 5.5 22H13.5C14.163 22 14.7989 21.7366 15.2678 21.2678C15.7366 20.7989 16 20.163 16 19.5V2.5C16 1.83696 15.7366 1.20107 15.2678 0.732233C14.7989 0.263392 14.163 0 13.5 0ZM9.5 21C8.67 21 8 20.33 8 19.5C8 18.67 8.67 18 9.5 18C10.33 18 11 18.67 11 19.5C11 20.33 10.33 21 9.5 21ZM14 17H5V3H14V17Z" fill="white"/>
</svg>
