<svg width="18" height="16" viewBox="0 0 18 16" fill="none" xmlns="http://www.w3.org/2000/svg">
<path d="M11.116 16C10.6713 16 10.291 15.8417 9.975 15.525C9.659 15.2083 9.50067 14.8283 9.5 14.385V10.115C9.5 9.671 9.65833 9.291 9.975 8.975C10.2917 8.659 10.6717 8.50067 11.115 8.5H15.385C15.829 8.5 16.209 8.65833 16.525 8.975C16.841 9.29167 16.9993 9.67167 17 10.115V14.385C17 14.829 16.8417 15.209 16.525 15.525C16.2083 15.841 15.8283 15.9993 15.385 16H11.116ZM11.116 7.5C10.6713 7.5 10.291 7.34167 9.975 7.025C9.659 6.70833 9.50067 6.32833 9.5 5.885V1.615C9.5 1.171 9.65833 0.791 9.975 0.475C10.2917 0.159 10.6717 0.000666667 11.115 0H15.385C15.829 0 16.209 0.158333 16.525 0.475C16.841 0.791667 16.9993 1.17167 17 1.615V5.885C17 6.329 16.8417 6.709 16.525 7.025C16.2083 7.341 15.8283 7.49933 15.385 7.5H11.116ZM2.616 7.5C2.17133 7.5 1.791 7.34167 1.475 7.025C1.159 6.70833 1.00067 6.32833 1 5.885V1.615C1 1.171 1.15833 0.791 1.475 0.475C1.79167 0.159 2.17167 0.000666667 2.615 0H6.885C7.329 0 7.709 0.158333 8.025 0.475C8.341 0.791667 8.49933 1.17167 8.5 1.615V5.885C8.5 6.329 8.34167 6.709 8.025 7.025C7.70833 7.341 7.32833 7.49933 6.885 7.5H2.616ZM2.616 16C2.17133 16 1.791 15.8417 1.475 15.525C1.159 15.2083 1.00067 14.8287 1 14.386V10.116C1 9.672 1.15833 9.292 1.475 8.976C1.79167 8.66 2.17167 8.50167 2.615 8.501H6.885C7.329 8.501 7.709 8.65933 8.025 8.976C8.341 9.29267 8.49933 9.67267 8.5 10.116V14.386C8.5 14.83 8.34167 15.21 8.025 15.526C7.70833 15.842 7.32833 16 6.885 16H2.616Z" fill="white"/>
</svg>
