<svg width="20" height="19" viewBox="0 0 20 19" fill="none" xmlns="http://www.w3.org/2000/svg">
<path d="M1.00216 18.1357C1.00284 18.1842 1.01307 18.2321 1.03227 18.2767C1.05147 18.3213 1.07925 18.3616 1.11405 18.3954C1.14884 18.4293 1.18996 18.4559 1.23505 18.4738C1.28014 18.4918 1.32832 18.5006 1.37684 18.5H18.6219C18.6705 18.5007 18.7187 18.4919 18.7639 18.474C18.809 18.4561 18.8502 18.4294 18.885 18.3956C18.9199 18.3618 18.9477 18.3214 18.9669 18.2768C18.9862 18.2322 18.9964 18.1843 18.9971 18.1357V17.7008C19.0056 17.5696 19.0231 16.916 18.5921 16.1926C18.3202 15.7365 17.9256 15.3428 17.4193 15.0217C16.8068 14.6333 16.0276 14.3524 15.085 14.1833C14.6065 14.1161 14.1318 14.0238 13.663 13.9066C12.4163 13.5883 12.3074 13.3065 12.3064 13.3036C12.2991 13.2759 12.2886 13.249 12.2752 13.2236C12.2647 13.1715 12.2396 12.9735 12.288 12.4434C12.4102 11.0967 13.1325 10.301 13.7128 9.66148C13.8956 9.46016 14.0685 9.26927 14.2016 9.08264C14.7762 8.27737 14.8292 7.36079 14.8316 7.30395C14.8338 7.20323 14.8198 7.10281 14.7904 7.00648C14.7335 6.83121 14.6279 6.72227 14.5502 6.64174C14.5319 6.62329 14.514 6.60433 14.4967 6.5849C14.491 6.57827 14.4759 6.56027 14.4896 6.46979C14.536 6.17834 14.5681 5.88477 14.5858 5.59016C14.6123 5.11553 14.6326 4.40595 14.51 3.71484C14.492 3.58283 14.4648 3.45225 14.4285 3.32405C14.2997 2.84816 14.0912 2.44237 13.8032 2.10669C13.7535 2.05221 12.5466 0.780369 9.0428 0.519843C8.55823 0.483843 8.07934 0.503264 7.60756 0.527422C7.46804 0.530555 7.32919 0.547694 7.1931 0.57858C6.83121 0.671895 6.73458 0.901159 6.70947 1.02953C6.66732 1.24269 6.74121 1.40753 6.79 1.51742C6.7971 1.53305 6.80611 1.55247 6.79047 1.60363C6.70948 1.72963 6.58111 1.84332 6.45085 1.95084C6.41295 1.98258 5.53476 2.74048 5.48644 3.73C5.35618 4.48269 5.36566 5.65506 5.5196 6.46553C5.52908 6.51053 5.54187 6.57685 5.52055 6.62185C5.35476 6.77011 5.16719 6.93827 5.16766 7.32195C5.16956 7.36079 5.22308 8.2769 5.79765 9.08264C5.93028 9.26927 6.10317 9.45969 6.28554 9.661L6.28648 9.66148C6.86674 10.301 7.58909 11.0967 7.7113 12.443C7.75914 12.9735 7.73403 13.171 7.72409 13.2236C7.7105 13.249 7.69985 13.2758 7.69235 13.3036C7.69188 13.3065 7.58341 13.5874 6.34238 13.9052C5.62618 14.0885 4.92135 14.1823 4.90003 14.1847C3.98395 14.3396 3.20949 14.6138 2.59797 14.9999C2.09351 15.3187 1.69799 15.7137 1.42326 16.1732C0.983686 16.9074 0.995528 17.5763 1.00169 17.6985L1.00216 18.1357Z" stroke="white" stroke-linejoin="round"/>
</svg>
